<?xml version="1.0" encoding="UTF-8"?>
<!DOCTYPE svg PUBLIC "-//W3C//DTD SVG 1.1//EN" "http://www.w3.org/Graphics/SVG/1.1/DTD/svg11.dtd">
<!-- Creator: CorelDRAW X7 -->
<svg xmlns="http://www.w3.org/2000/svg" xml:space="preserve" width="4.993in" height="1.267in" version="1.1" style="shape-rendering:geometricPrecision; text-rendering:geometricPrecision; image-rendering:optimizeQuality; fill-rule:evenodd; clip-rule:evenodd"
viewBox="0 0 4993 1267"
 xmlns:xlink="http://www.w3.org/1999/xlink">
 <defs>
  <style type="text/css">
   <![CDATA[
    .fil0 {fill:#FEFEFE}
   ]]>
  </style>
 </defs>
 <g id="Layer_x0020_1">
  <metadata id="CorelCorpID_0Corel-Layer"/>
  <g id="_2846213580704">
   <path class="fil0" d="M957 338c0,0 -9,-10 -16,-18 -7,-8 -234,-240 -234,-240l-26 -26c-23,-25 -62,-24 -85,0l-84 85 145 0c7,0 13,4 17,10l10 16c5,8 -1,19 -11,19l-177 0 -141 0 56 59c17,15 39,23 61,23l24 0 219 0c8,0 16,4 21,11 5,5 8,11 8,11 5,9 -1,19 -11,19l-497 0 36 38c15,13 35,21 55,21l618 0c14,0 22,-17 12,-28z"/>
   <path class="fil0" d="M2639 400l-104 0 0 443 64 0c22,0 40,-18 40,-40l0 -403z"/>
   <polygon class="fil0" points="2535,400 2535,505 2639,505 2639,400 "/>
   <path class="fil0" d="M1632 610l-46 0 0 -128 46 0c61,0 73,35 73,64 0,29 -12,64 -73,64zm144 -172c-25,-25 -63,-38 -113,-38l-182 0 0 443 64 0c23,0 41,-18 41,-40l0 -111 77 0c50,0 88,-13 113,-38 26,-26 39,-62 39,-108 0,-46 -13,-83 -39,-108z"/>
   <path class="fil0" d="M2130 757l-142 0 0 -93 134 0 0 -87 -134 0 0 -91 142 0 0 -86 -246 0 0 443 205 0c23,0 41,-18 41,-40l0 -46z"/>
   <path class="fil0" d="M2468 757l-143 0 0 -357 -104 0 0 443 206 0c23,0 41,-18 41,-40l0 -46z"/>
   <path class="fil0" d="M2845 550l231 293 107 0 0 -443 -104 0 0 294 -4 -5 -226 -289 -108 0 0 443 63 0c23,0 41,-18 41,-40l0 -253z"/>
   <path class="fil0" d="M3552 676c-6,16 -15,31 -27,43 -12,12 -26,21 -43,28 -17,7 -37,10 -58,10l-35 0 0 -271 35 0c21,0 40,4 57,11 17,6 32,16 44,28 11,12 21,27 27,43 6,17 10,35 10,54 0,19 -4,37 -10,54zm103 30c11,-27 17,-55 17,-84 0,-29 -6,-58 -18,-84 -11,-27 -27,-51 -46,-71 -20,-20 -43,-37 -70,-49 -26,-12 -55,-18 -84,-18l-169 0 0 443 169 0c30,0 59,-6 85,-18 26,-12 50,-28 69,-49 20,-20 36,-44 47,-70z"/>
   <path class="fil0" d="M4104 675c-7,16 -17,31 -30,43 -13,11 -27,21 -44,27 -16,7 -34,10 -52,10 -18,0 -36,-3 -52,-10 -16,-6 -31,-16 -43,-27 -13,-12 -23,-27 -30,-43 -7,-16 -11,-34 -11,-53 0,-19 4,-37 11,-54 7,-16 17,-30 30,-42 12,-12 27,-21 43,-28 33,-13 72,-13 104,0 17,7 31,16 44,28 13,12 23,26 30,42 7,17 11,35 11,54 0,19 -4,37 -11,53zm102 39c13,-28 19,-59 19,-92 0,-33 -6,-64 -19,-92 -12,-29 -29,-54 -50,-75l0 0c-22,-21 -48,-38 -79,-50 -30,-12 -63,-18 -99,-18 -36,0 -70,6 -99,18 -30,12 -56,29 -78,50 -21,21 -38,46 -51,75 -12,28 -18,59 -18,92 0,33 6,64 18,92 13,28 30,53 51,74 22,22 48,38 78,50 29,12 63,18 99,18 36,0 69,-6 99,-18 31,-12 57,-28 79,-50 21,-21 38,-46 50,-74z"/>
   <polygon class="fil0" points="4434,401 4434,840 4546,840 4546,401 "/>
   <polygon class="fil0" points="4644,401 4644,840 4756,840 4756,401 "/>
   <polygon class="fil0" points="4855,401 4855,840 4966,840 4966,401 "/>
   <path class="fil0" d="M338 875c-14,0 -22,17 -13,28 0,0 10,10 17,18 7,8 17,13 28,13l528 0c20,0 39,-7 54,-20l36 -39 -650 0z"/>
   <path class="fil0" d="M241 642c-74,0 -98,64 -63,107 22,28 45,48 48,51 3,4 9,11 18,19 11,10 25,16 40,16l708 0c20,0 39,-7 54,-21l43 -44 -371 0 0 0 -322 0c-8,0 -13,-9 -8,-16l11 -14c5,-6 12,-10 21,-10l32 0 643 0c20,0 39,-8 54,-21l67 -67 -975 0z"/>
   <path class="fil0" d="M445 975c-17,0 -27,21 -15,34l171 178c24,24 63,24 86,0l84 -85 -145 0c-7,0 -13,-4 -17,-10l-10 -16c-5,-8 1,-19 11,-19l166 0c23,0 44,-8 61,-23l57 -59 -449 0z"/>
   <path class="fil0" d="M1108 492c-22,-28 -45,-49 -48,-52 -3,-3 -9,-10 -19,-18 -11,-10 -24,-16 -39,-16l-865 0 43 44c15,13 35,20 55,20l654 1c9,0 14,9 9,16l-11 14c-5,6 -13,10 -21,10l-32 0 -807 0 66 67c15,14 35,21 55,21l897 0c74,0 98,-64 63,-107z"/>
   <path class="fil0" d="M2002 1060c0,-7 -1,-13 -3,-16 -3,-4 -5,-7 -9,-9 -3,-1 -7,-2 -11,-3 -4,0 -7,0 -10,0l-29 0 -12 59 33 0c4,1 8,1 11,0 2,0 6,-1 9,-2 3,-1 7,-3 9,-5 3,-3 6,-6 8,-9 2,-4 3,-9 4,-15zm-10 80c1,-4 1,-8 0,-12 -1,-4 -3,-7 -6,-10 -3,-3 -6,-5 -11,-7 -5,-2 -11,-3 -18,-3l-32 0 -14 64 32 0c4,0 8,0 14,0 5,-1 10,-2 15,-4 5,-2 10,-5 14,-10 3,-4 6,-10 6,-18zm30 -79c-1,9 -3,15 -7,20 -4,5 -8,9 -12,12 -5,3 -10,6 -16,7 5,2 10,4 14,8 4,3 7,7 9,12 3,5 4,12 3,21 -1,8 -3,15 -6,20 -3,6 -6,11 -11,14 -4,4 -8,6 -14,8 -5,2 -10,4 -15,5 -5,1 -10,1 -15,1 -4,1 -9,1 -12,1l-53 0 37 -175 53 0c7,0 14,1 19,3 6,2 11,6 15,9 4,4 7,9 9,15 2,6 2,12 2,19z"/>
   <path class="fil0" d="M2121 1107c1,-5 1,-9 1,-13 -1,-4 -2,-8 -3,-11 -2,-3 -4,-6 -7,-8 -3,-2 -7,-3 -10,-3 -5,0 -9,0 -12,1 -4,1 -7,3 -10,5 -3,2 -6,5 -8,7 -2,3 -4,6 -5,9 -4,7 -7,15 -9,24l57 -4c1,-1 2,-1 3,-2 2,-1 2,-3 3,-5zm17 4c-2,6 -4,10 -6,12 -2,2 -4,4 -5,4l-70 4c-1,8 -1,14 0,20 1,3 1,5 3,8 1,3 2,5 4,7 2,3 4,5 7,6 3,2 6,3 10,4 6,1 12,1 16,0 5,-1 10,-2 13,-3 4,-2 8,-4 12,-7l-4 14c0,1 -1,2 -1,3 -1,0 -2,1 -3,2 -1,1 -2,1 -4,2 -1,1 -4,2 -7,3 -3,1 -7,2 -11,2 -5,0 -10,0 -16,-1 -7,-1 -13,-4 -18,-7 -5,-4 -10,-9 -13,-14 -3,-6 -6,-13 -7,-20 -1,-8 -1,-16 1,-25 2,-11 5,-21 10,-30 4,-9 10,-16 16,-22 6,-5 12,-9 19,-12 7,-3 14,-4 21,-3 8,1 14,3 18,7 5,4 9,8 11,14 3,5 5,10 5,16 0,6 0,12 -1,16z"/>
   <path class="fil0" d="M2264 1061l-71 138c-2,4 -4,8 -6,12 -3,4 -5,7 -8,10 -2,3 -5,6 -8,7 -4,2 -7,3 -12,3 -3,0 -6,0 -8,-1 -2,0 -4,-1 -5,-2 -1,-1 -2,-2 -3,-4l0 -13c1,1 2,2 3,3 1,1 2,2 4,2 1,1 3,1 6,1 6,-1 10,-3 13,-6 3,-3 5,-7 7,-11l4 -10 -14 -129 16 0 10 110 55 -110 17 0z"/>
   <path class="fil0" d="M2360 1127c0,-5 1,-10 1,-15 0,-6 0,-12 -1,-17 -2,-6 -4,-11 -7,-15 -3,-4 -8,-7 -15,-8 -7,-1 -13,0 -18,2 -5,3 -9,6 -13,11 -4,5 -7,11 -9,18 -3,7 -5,15 -6,24 -1,6 -1,13 -1,18 1,6 2,11 3,16 2,4 5,8 8,11 3,3 7,5 13,6 7,1 13,-1 18,-4 6,-3 10,-7 14,-12 3,-6 6,-12 8,-18 2,-6 4,-12 5,-17zm19 -1c-2,11 -5,21 -9,29 -4,9 -8,16 -14,22 -6,6 -12,10 -20,12 -7,3 -15,4 -25,2 -9,-1 -17,-4 -22,-9 -5,-4 -9,-10 -12,-16 -3,-6 -4,-13 -4,-20 -1,-7 0,-14 0,-20 2,-11 4,-21 8,-30 3,-8 8,-16 14,-22 5,-6 12,-10 20,-13 7,-3 16,-4 25,-3 9,1 16,4 22,8 5,4 9,10 12,16 4,6 5,13 6,21 1,8 0,15 -1,23z"/>
   <path class="fil0" d="M2503 1122l-15 68 -16 0 14 -68c2,-7 3,-14 3,-20 0,-6 0,-12 -2,-16 -1,-4 -3,-8 -6,-10 -3,-2 -6,-4 -11,-4 -7,1 -13,4 -19,9 -5,6 -11,14 -15,22 -5,9 -9,18 -13,28 -3,9 -6,18 -8,26l-8 33 -16 0 28 -129 16 0 -11 52c4,-10 8,-19 13,-27 2,-4 4,-7 6,-10 3,-4 6,-7 9,-9 3,-3 6,-5 10,-7 3,-1 7,-2 11,-2 7,0 13,2 18,5 5,3 8,7 11,13 2,6 4,12 4,20 0,8 -1,17 -3,26z"/>
   <path class="fil0" d="M2624 1087c-1,-4 -3,-6 -5,-8 -2,-2 -5,-4 -8,-5 -4,-2 -8,-3 -13,-3 -6,1 -12,2 -17,5 -5,2 -10,6 -13,11 -4,5 -7,11 -10,17 -2,7 -4,15 -6,23 -1,6 -1,12 -1,18 0,6 1,11 2,16 1,4 3,8 6,11 2,2 5,4 9,5 4,0 8,-1 12,-3 3,-3 7,-6 11,-11 3,-4 7,-9 10,-15 4,-6 7,-12 9,-18 3,-7 6,-13 8,-19 2,-6 3,-12 5,-17l1 -7zm32 -73l-37 176 -16 0 11 -52c-4,10 -8,18 -12,26 -2,4 -5,7 -7,10 -3,3 -6,6 -9,9 -3,2 -6,4 -10,6 -3,1 -7,2 -11,2 -8,1 -15,-1 -19,-6 -5,-4 -8,-10 -11,-17 -2,-7 -3,-14 -3,-22 0,-7 1,-14 2,-20 1,-9 4,-17 7,-25 4,-8 8,-15 14,-22 5,-6 11,-11 18,-15 6,-4 14,-6 22,-6 5,0 10,1 14,2 4,2 7,4 10,6 3,2 5,4 8,8l13 -60 16 0z"/>
   <path class="fil0" d="M2839 1074c1,-7 1,-12 1,-17 -1,-5 -2,-9 -4,-12 -1,-3 -3,-6 -6,-7 -3,-2 -5,-3 -8,-4 -3,-1 -5,-2 -8,-2 -2,0 -4,0 -5,0l-31 0 -17 83 33 0c1,0 3,-1 7,-1 4,0 9,-2 13,-4 5,-3 10,-7 14,-12 5,-6 8,-14 11,-24zm20 -1c-2,12 -5,22 -10,30 -4,7 -9,13 -15,17 -6,5 -13,7 -20,9 -7,2 -15,2 -23,2l-34 0 -12 59 -20 0 37 -175 53 0c8,0 16,2 22,5 6,2 12,6 15,12 4,5 7,11 8,18 1,7 1,15 -1,23z"/>
   <path class="fil0" d="M2958 1127c0,-5 1,-10 1,-15 1,-6 0,-12 -1,-17 -1,-6 -4,-11 -7,-15 -3,-4 -8,-7 -15,-8 -7,-1 -13,0 -18,2 -5,3 -9,6 -13,11 -4,5 -7,11 -9,18 -2,7 -4,15 -6,24 -1,6 -1,13 -1,18 1,6 2,11 4,16 1,4 4,8 7,11 4,3 8,5 13,6 7,1 13,-1 19,-4 5,-3 9,-7 13,-12 4,-6 6,-12 8,-18 3,-6 4,-12 5,-17zm19 -1c-2,11 -5,21 -9,29 -3,9 -8,16 -14,22 -5,6 -12,10 -19,12 -8,3 -16,4 -25,2 -10,-1 -17,-4 -23,-9 -5,-4 -9,-10 -12,-16 -2,-6 -4,-13 -4,-20 0,-7 0,-14 1,-20 1,-11 4,-21 7,-30 4,-8 8,-16 14,-22 6,-6 12,-10 20,-13 8,-3 16,-4 26,-3 8,1 15,4 21,8 5,4 10,10 13,16 3,6 5,13 5,21 1,8 0,15 -1,23z"/>
   <path class="fil0" d="M3085 1078c0,-1 -1,-1 -2,-2 -1,-1 -2,-2 -4,-2 -2,-1 -4,-1 -6,-1 -5,0 -9,1 -13,4 -4,3 -7,6 -11,11 -3,4 -6,9 -9,15 -2,6 -5,12 -7,18 -2,7 -5,13 -6,19 -2,6 -4,12 -5,17l-8 33 -16 0 27 -129 17 0 -10 45c3,-8 6,-16 9,-23 2,-2 4,-5 6,-8 2,-3 4,-6 6,-8 3,-2 5,-4 8,-6 2,-2 5,-3 9,-3 3,0 6,0 8,1 2,0 3,1 4,2 2,1 3,2 3,3l0 14z"/>
   <path class="fil0" d="M3164 1061l-5 14 -34 0 -15 73c0,3 0,6 -1,9 0,3 0,6 0,8 1,3 2,5 3,7 2,2 4,4 7,4 3,1 6,1 9,0 3,-1 5,-2 8,-3 2,-2 5,-4 7,-6l-4 14c0,1 0,2 -1,2 0,1 -1,2 -2,3 -1,1 -4,2 -7,4 -4,1 -8,2 -13,1 -5,0 -9,-1 -12,-3 -3,-2 -6,-5 -8,-8 -2,-4 -4,-8 -4,-13 -1,-5 0,-12 2,-19l15 -73 -20 0 5 -14 18 0 4 -19c0,-2 1,-4 3,-6 1,-2 4,-3 7,-3l8 -1 -6 29 36 0z"/>
   <path class="fil0" d="M3329 1127c0,-5 1,-10 1,-15 1,-6 0,-12 -1,-17 -1,-6 -4,-11 -7,-15 -3,-4 -8,-7 -15,-8 -7,-1 -13,0 -18,2 -5,3 -9,6 -13,11 -4,5 -7,11 -9,18 -2,7 -4,15 -6,24 0,6 -1,13 0,18 0,6 1,11 3,16 1,4 4,8 7,11 4,3 8,5 13,6 7,1 13,-1 19,-4 5,-3 10,-7 13,-12 4,-6 6,-12 9,-18 2,-6 3,-12 4,-17zm19 -1c-2,11 -5,21 -8,29 -4,9 -9,16 -15,22 -5,6 -12,10 -19,12 -8,3 -16,4 -25,2 -10,-1 -17,-4 -23,-9 -5,-4 -9,-10 -12,-16 -2,-6 -4,-13 -4,-20 0,-7 0,-14 1,-20 1,-11 4,-21 7,-30 4,-8 8,-16 14,-22 6,-6 12,-10 20,-13 8,-3 16,-4 26,-3 8,1 15,4 21,8 6,4 10,10 13,16 3,6 5,13 5,21 1,8 1,15 -1,23z"/>
   <path class="fil0" d="M3444 1035c-1,-2 -2,-3 -3,-4 -1,-1 -2,-1 -3,-2 -2,0 -4,-1 -7,-1 -2,1 -5,1 -6,3 -2,1 -4,3 -5,5 -1,2 -2,4 -2,6 -1,2 -1,3 -2,4l-3 15 24 0 -4 14 -22 0 -33 155 -16 0 32 -155 -20 0 5 -14 18 0 3 -15c1,-4 2,-8 3,-12 2,-4 4,-7 6,-10 2,-3 5,-5 8,-7 3,-2 7,-3 11,-3 4,0 6,0 8,1 2,1 4,2 5,2 1,1 2,2 3,4l0 14z"/>
   <polygon class="fil0" points="3519,1190 3499,1190 3536,1015 3555,1015 "/>
   <path class="fil0" d="M3670 1122l-15 68 -16 0 14 -68c2,-7 3,-14 3,-20 0,-6 0,-12 -2,-16 -1,-4 -3,-8 -6,-10 -3,-2 -6,-4 -11,-4 -7,1 -13,4 -19,9 -5,6 -11,14 -15,22 -5,9 -9,18 -13,28 -3,9 -6,18 -8,26l-8 33 -16 0 28 -129 16 0 -11 52c4,-10 8,-19 13,-27 2,-4 4,-7 6,-10 3,-4 6,-7 9,-9 3,-3 6,-5 10,-7 3,-1 7,-2 11,-2 7,0 13,2 18,5 5,3 8,7 11,13 2,6 4,12 4,20 0,8 -1,17 -3,26z"/>
   <path class="fil0" d="M3791 1087c-2,-4 -3,-6 -5,-8 -2,-2 -5,-4 -8,-5 -4,-2 -8,-3 -13,-3 -6,1 -12,2 -17,5 -5,2 -10,6 -13,11 -4,5 -7,11 -10,17 -2,7 -4,15 -6,23 -1,6 -1,12 -1,18 0,6 1,11 2,16 1,4 3,8 6,11 2,2 5,4 9,5 4,0 8,-1 12,-3 3,-3 7,-6 11,-11 3,-4 7,-9 10,-15 3,-6 7,-12 9,-18 3,-7 6,-13 8,-19 2,-6 3,-12 5,-17l1 -7zm32 -73l-37 176 -16 0 11 -52c-4,10 -8,18 -12,26 -2,4 -5,7 -7,10 -3,3 -6,6 -9,9 -3,2 -6,4 -10,6 -3,1 -7,2 -11,2 -8,1 -15,-1 -19,-6 -5,-4 -8,-10 -11,-17 -2,-7 -3,-14 -3,-22 0,-7 1,-14 2,-20 1,-9 4,-17 7,-25 4,-8 8,-15 14,-22 5,-6 11,-11 18,-15 6,-4 14,-6 22,-6 5,0 10,1 14,2 4,2 7,4 10,6 3,2 5,4 8,8l13 -60 16 0z"/>
   <path class="fil0" d="M3917 1127c1,-5 1,-10 2,-15 0,-6 0,-12 -2,-17 -1,-6 -3,-11 -6,-15 -4,-4 -9,-7 -15,-8 -7,-1 -13,0 -18,2 -5,3 -10,6 -13,11 -4,5 -7,11 -10,18 -2,7 -4,15 -5,24 -1,6 -1,13 -1,18 0,6 1,11 3,16 2,4 4,8 8,11 3,3 7,5 12,6 8,1 14,-1 19,-4 6,-3 10,-7 14,-12 3,-6 6,-12 8,-18 2,-6 4,-12 4,-17zm20 -1c-2,11 -5,21 -9,29 -4,9 -9,16 -14,22 -6,6 -12,10 -20,12 -7,3 -16,4 -25,2 -9,-1 -17,-4 -22,-9 -5,-4 -9,-10 -12,-16 -3,-6 -4,-13 -4,-20 -1,-7 -1,-14 0,-20 2,-11 4,-21 8,-30 3,-8 8,-16 13,-22 6,-6 13,-10 20,-13 8,-3 17,-4 26,-3 9,1 16,4 21,8 6,4 10,10 13,16 3,6 5,13 6,21 0,8 0,15 -1,23z"/>
   <path class="fil0" d="M4061 1122l-15 68 -16 0 14 -68c2,-7 3,-14 3,-20 0,-6 0,-12 -2,-16 -1,-4 -3,-8 -6,-10 -3,-2 -6,-4 -11,-4 -6,1 -13,4 -19,9 -5,6 -11,14 -15,22 -5,9 -9,18 -12,28 -4,9 -7,18 -9,26l-8 33 -16 0 28 -129 16 0 -11 52c4,-10 8,-19 13,-27 2,-4 4,-7 7,-10 2,-4 5,-7 8,-9 3,-3 6,-5 10,-7 3,-1 7,-2 11,-2 7,0 13,2 18,5 5,3 8,7 11,13 2,6 4,12 4,20 0,8 -1,17 -3,26z"/>
   <path class="fil0" d="M4174 1107c1,-5 1,-9 1,-13 -1,-4 -2,-8 -4,-11 -1,-3 -3,-6 -6,-8 -3,-2 -7,-3 -11,-3 -4,0 -8,0 -12,1 -3,1 -7,3 -9,5 -3,2 -6,5 -8,7 -2,3 -4,6 -5,9 -4,7 -7,15 -9,24l57 -4c1,-1 2,-1 3,-2 1,-1 2,-3 3,-5zm17 4c-2,6 -4,10 -6,12 -2,2 -4,4 -5,4l-70 4c-1,8 -1,14 0,20 0,3 1,5 2,8 1,3 3,5 5,7 2,3 4,5 7,6 3,2 6,3 10,4 6,1 11,1 16,0 5,-1 9,-2 13,-3 4,-2 8,-4 11,-7l-3 14c0,1 -1,2 -1,3 -1,0 -2,1 -3,2 -1,1 -2,1 -4,2 -1,1 -4,2 -7,3 -3,1 -7,2 -11,2 -5,0 -10,0 -16,-1 -7,-1 -13,-4 -18,-7 -5,-4 -10,-9 -13,-14 -4,-6 -6,-13 -7,-20 -1,-8 -1,-16 1,-25 2,-11 5,-21 10,-30 4,-9 9,-16 16,-22 6,-5 12,-9 19,-12 7,-3 14,-4 21,-3 7,1 13,3 18,7 5,4 9,8 11,14 3,5 4,10 5,16 0,6 0,12 -1,16z"/>
   <path class="fil0" d="M4293 1084c-1,-2 -3,-3 -6,-5 -2,-2 -4,-3 -7,-4 -3,-2 -6,-3 -10,-3 -9,-1 -15,0 -21,3 -5,3 -8,7 -8,13 -1,4 -1,8 2,12 2,4 5,7 8,10 4,4 7,7 12,10 4,4 8,7 11,11 4,4 7,8 9,13 2,4 3,9 2,15 -1,7 -2,12 -5,16 -3,4 -6,8 -11,10 -4,3 -9,5 -14,6 -6,1 -12,1 -18,0 -4,0 -8,-1 -12,-2 -4,-1 -7,-2 -10,-3 -3,-1 -5,-3 -7,-4 -1,-1 -2,-2 -3,-2 -1,-1 -2,-3 -2,-4 0,-1 1,-2 1,-3l2 -12c3,3 6,5 10,7 3,2 7,4 11,5 4,2 8,3 13,3 3,0 6,0 9,0 3,0 6,-1 8,-2 3,-2 5,-3 7,-5 1,-3 3,-5 3,-9 1,-5 0,-9 -2,-13 -2,-4 -5,-7 -8,-11 -4,-3 -8,-6 -12,-10 -4,-3 -8,-6 -12,-10 -3,-4 -6,-8 -8,-12 -2,-5 -3,-10 -2,-15 0,-5 2,-10 4,-14 3,-4 6,-7 10,-10 4,-3 8,-5 13,-6 5,-1 11,-2 17,-1 4,0 8,1 11,2 3,1 6,1 9,2 2,2 4,3 6,4l0 18z"/>
   <path class="fil0" d="M4358 1028c-1,4 -2,6 -5,8 -2,1 -5,2 -8,1 -2,0 -5,-1 -6,-3 -2,-2 -3,-4 -2,-7 0,-3 2,-5 4,-7 3,-1 5,-2 8,-2 3,1 5,2 6,3 2,2 3,5 3,7zm-10 33l-27 129 -17 0 27 -129 17 0z"/>
   <path class="fil0" d="M4453 1087c-2,-4 -3,-7 -5,-9 -2,-1 -5,-3 -8,-5 -4,-1 -8,-2 -13,-2 -7,1 -13,3 -18,7 -5,4 -10,8 -13,13 -4,6 -7,12 -10,18 -2,6 -4,12 -5,18 -1,6 -1,12 -1,18 0,6 1,11 2,16 1,4 3,8 6,11 2,2 5,4 9,5 4,0 8,-1 12,-3 3,-3 7,-6 11,-11 3,-4 7,-9 10,-15 3,-6 7,-12 9,-18 3,-7 6,-13 8,-19 2,-6 3,-12 5,-17l1 -7zm22 -26l-27 129 -17 0 12 -52c-4,10 -8,18 -12,26 -2,4 -5,7 -7,10 -3,3 -6,6 -9,9 -3,2 -6,4 -10,6 -3,1 -7,2 -11,2 -8,1 -15,-1 -19,-6 -5,-4 -8,-10 -11,-17 -2,-7 -3,-14 -3,-22 0,-7 0,-14 2,-20 1,-9 4,-17 7,-25 4,-8 8,-15 14,-21 5,-6 11,-11 18,-15 6,-4 14,-6 22,-7 5,0 10,0 14,2 4,2 7,3 10,6 2,2 5,4 8,8 0,-2 0,-3 1,-4 0,-1 0,-2 1,-3 0,-1 0,-2 0,-2 2,-3 4,-4 8,-4l9 0z"/>
  </g>
 </g>
</svg>
