<?xml version="1.0" encoding="UTF-8"?>
<!DOCTYPE svg PUBLIC "-//W3C//DTD SVG 1.1//EN" "http://www.w3.org/Graphics/SVG/1.1/DTD/svg11.dtd">
<!-- Creator: CorelDRAW X7 -->
<svg xmlns="http://www.w3.org/2000/svg" xml:space="preserve" width="1.65354in" height="1.65354in" version="1.1" style="shape-rendering:geometricPrecision; text-rendering:geometricPrecision; image-rendering:optimizeQuality; fill-rule:evenodd; clip-rule:evenodd"
viewBox="0 0 1654 1654"
 xmlns:xlink="http://www.w3.org/1999/xlink">
 <defs>
  <style type="text/css">
   <![CDATA[
    .fil1 {fill:#FEFEFE}
    .fil0 {fill:#61BB54}
   ]]>
  </style>
 </defs>
 <g id="Layer_x0020_1">
  <metadata id="CorelCorpID_0Corel-Layer"/>
  <g id="_2118087273520">
   <path class="fil0" d="M242 1428l-8 3 1 -3 2 -5 1 -5 2 -5 2 -5 1 -6 2 -5 2 -5 2 -5 1 -5 2 -5 2 -5 1 -5 2 -5 2 -5 2 -5 1 -6 2 -5 2 -5 1 -5 2 -5 2 -5 2 -5 1 -5 2 -5 2 -5 1 -5 2 -6 2 -5 1 -5 2 -5 2 -5 2 -5 1 -5 2 -5 2 -5 1 -5 2 -5 2 -6 2 -5 1 -5 2 -5 2 -5 1 -5 2 -5 2 -5 1 -5 1 -1c0,0 -2,-1 -4,-4 -1,-2 -2,-3 -3,-5 -1,-2 -2,-4 -3,-6 -1,-1 -3,-3 -4,-5 -1,-1 -2,-3 -3,-5 -1,-1 -2,-3 -3,-5 -1,-1 -2,-3 -3,-5 -1,-2 -2,-3 -3,-5 -1,-2 -2,-3 -3,-5 -1,-2 -2,-3 -3,-5 -1,-2 -2,-4 -3,-5 -1,-2 -1,-4 -2,-5 -1,-2 -2,-4 -3,-5 -1,-2 -2,-4 -3,-6 -1,-1 -2,-3 -2,-5 -1,-1 -2,-3 -3,-5 -1,-1 -2,-3 -3,-5 0,-2 -1,-3 -2,-5 -1,-2 -2,-3 -3,-5 0,-2 -1,-3 -2,-5 -1,-2 -2,-3 -2,-5 -1,-2 -2,-4 -3,-5 -1,-2 -1,-4 -2,-5 -1,-2 -2,-4 -2,-5 -1,-2 -2,-4 -3,-6 0,-1 -1,-3 -2,-5 0,-1 -1,-3 -2,-5 -1,-1 -1,-3 -2,-5 -1,-2 -1,-3 -2,-5 -1,-2 -1,-3 -2,-5 -1,-2 -1,-3 -2,-5 -1,-2 -1,-4 -2,-5 -1,-2 -1,-4 -2,-5 0,-2 -1,-4 -2,-5 0,-2 -1,-4 -1,-5 -1,-2 -2,-4 -2,-6 -1,-1 -1,-3 -2,-5 -1,-1 -1,-3 -2,-5 0,-1 -1,-3 -1,-5 -1,-2 -1,-3 -2,-5 0,-2 -1,-3 -1,-5 -1,-2 -1,-3 -2,-5 0,-2 -1,-4 -1,-5 -1,-2 -1,-4 -2,-5 0,-2 -1,-4 -1,-5 -1,-2 -1,-4 -2,-5 0,-2 -1,-4 -1,-6 0,-1 -1,-3 -1,-5 -1,-1 -1,-3 -2,-5 0,-1 0,-3 -1,-5 0,-2 0,-3 -1,-5 0,-2 -1,-3 -1,-5 0,-2 -1,-3 -1,-5 0,-2 -1,-4 -1,-5 0,-2 -1,-4 -1,-5 0,-2 -1,-4 -1,-5 0,-2 -1,-4 -1,-6 0,-1 0,-3 -1,-5 0,-1 0,-3 -1,-5 0,-1 0,-3 0,-5 -1,-1 -1,-3 -1,-5 0,-2 -1,-3 -1,-5 0,-2 0,-3 0,-5 -1,-2 -1,-3 -1,-5 0,-2 0,-4 -1,-5 0,-2 0,-4 0,-5 0,-2 0,-4 0,-5 -1,-2 -1,-4 -1,-6 0,-1 0,-3 0,-5 0,-1 0,-3 -1,-5 0,-1 0,-3 0,-5 0,-1 0,-3 0,-5 0,-2 0,-3 0,-5 0,-2 0,-3 0,-5 0,-2 0,-3 0,-5 0,-2 0,-4 0,-5l0 0c0,-2 0,-4 0,-5 0,-2 0,-4 0,-5 0,-2 0,-4 0,-6 0,-1 0,-3 0,-5 0,-1 0,-3 0,-5 0,-1 0,-3 0,-5 0,-1 0,-3 1,-5 0,-2 0,-3 0,-5 0,-2 0,-3 0,-5 0,-2 0,-3 1,-5 0,-2 0,-4 0,-5 0,-2 0,-4 0,-5 1,-2 1,-4 1,-5 0,-2 0,-4 0,-6 1,-1 1,-3 1,-5 0,-1 0,-3 1,-5 0,-1 0,-3 0,-5 1,-2 1,-3 1,-5 0,-2 0,-3 1,-5 0,-2 0,-3 1,-5 0,-2 0,-3 0,-5 1,-2 1,-4 1,-5 0,-2 1,-4 1,-5 0,-2 1,-4 1,-5 0,-2 1,-4 1,-6 0,-1 1,-3 1,-5 0,-1 1,-3 1,-5 1,-1 1,-3 1,-5 1,-2 1,-3 1,-5 1,-2 1,-3 2,-5 0,-2 0,-3 1,-5 0,-2 1,-3 1,-5 1,-2 1,-4 1,-5 1,-2 1,-4 2,-5 0,-2 1,-4 1,-5 1,-2 1,-4 2,-6 0,-1 1,-3 1,-5 1,-1 1,-3 2,-5 0,-1 1,-3 1,-5 1,-2 2,-3 2,-5 1,-2 1,-3 2,-5 0,-2 1,-3 2,-5 0,-2 1,-3 1,-5 1,-2 1,-4 2,-5 1,-2 1,-4 2,-5 1,-2 1,-4 2,-5 1,-2 1,-4 2,-6 1,-1 1,-3 2,-5 1,-1 1,-3 2,-5 1,-1 1,-3 2,-5 1,-2 2,-3 2,-5 1,-2 2,-3 3,-5 0,-2 1,-3 2,-5 1,-2 1,-3 2,-5 1,-2 2,-4 3,-5 0,-2 1,-4 2,-5 1,-2 2,-4 3,-5 0,-2 1,-4 2,-6 1,-1 2,-3 3,-5 1,-1 2,-3 3,-5 0,-1 1,-3 2,-5 1,-2 2,-3 3,-5 1,-2 2,-3 3,-5 1,-2 2,-3 3,-5 1,-2 2,-4 3,-5 1,-2 2,-4 3,-5 1,-2 2,-4 3,-5 1,-2 2,-4 3,-5 1,-2 2,-4 3,-6 1,-1 3,-3 4,-5 1,-1 2,-3 3,-5 1,-1 2,-3 3,-5 2,-2 3,-3 4,-5 1,-2 2,-3 3,-5 2,-2 3,-3 4,-5 1,-2 3,-4 4,-5 1,-2 2,-4 4,-5 1,-2 2,-4 4,-5 1,-2 2,-4 3,-5 2,-2 3,-4 5,-6 1,-1 2,-3 4,-5 1,-1 2,-3 4,-5 1,-1 3,-3 4,-5 2,-2 3,-3 5,-5 1,-2 3,-3 4,-5 2,-2 3,-3 5,-5 1,-2 3,-4 4,-5 2,-2 3,-4 5,-5 2,-2 3,-4 5,-5 2,-2 3,-4 5,-6 2,-1 3,-3 5,-5 2,-1 3,-3 5,-5 2,-1 4,-3 6,-5 1,-1 3,-3 5,-5 2,-2 4,-3 6,-5 1,-2 3,-3 5,-5 2,-2 4,-3 6,-5 2,-2 4,-4 6,-5 2,-2 4,-4 6,-5 2,-2 4,-4 6,-5 3,-2 5,-4 7,-6 2,-1 4,-3 7,-5 2,-1 4,-3 6,-5 3,-1 5,-3 7,-5 3,-1 5,-3 8,-5 2,-2 4,-3 7,-5 2,-2 5,-3 8,-5 2,-2 5,-3 7,-5 3,-2 6,-4 9,-5 2,-2 5,-4 8,-5 3,-2 6,-4 9,-5 3,-2 6,-4 9,-6 3,-1 6,-3 9,-5 3,-1 6,-3 10,-5 3,-1 6,-3 10,-5 3,-2 7,-3 11,-5 3,-2 7,-3 11,-5 4,-2 7,-3 11,-5 4,-2 9,-3 13,-5 4,-2 9,-4 13,-5 5,-2 10,-4 14,-5 5,-2 10,-4 16,-5 5,-2 11,-4 16,-6 7,-1 13,-3 19,-5 7,-1 14,-3 22,-5 8,-2 16,-3 25,-5 11,-2 22,-3 34,-5 26,-3 54,-5 81,-5 28,0 55,2 82,5 11,2 23,3 34,5 8,2 17,3 25,5 7,2 14,4 22,5 6,2 12,4 18,5 6,2 11,4 17,6 5,1 10,3 15,5 5,1 10,3 15,5 4,1 8,3 13,5 4,2 8,3 12,5 4,2 8,3 12,5 4,2 7,3 11,5 4,2 7,3 11,5 3,2 7,4 10,5 3,2 6,4 10,5 3,2 6,4 9,5 3,2 6,4 9,6 3,1 6,3 9,5 2,1 5,3 8,5 3,1 6,3 8,5 3,2 5,3 8,5 3,2 5,3 8,5 2,2 5,3 7,5 2,2 5,4 7,5 3,2 5,4 7,5 3,2 5,4 7,5 2,2 4,4 7,5 2,2 4,4 6,6 2,1 4,3 6,5 2,1 4,3 7,5 2,1 4,3 6,5 1,2 3,3 5,5 2,2 4,3 6,5 2,2 4,3 6,5 1,2 3,4 5,5 2,2 4,4 5,5 2,2 4,4 6,5 1,2 3,4 5,5 1,2 3,4 5,6 1,1 3,3 5,5 1,1 3,3 4,5 2,1 3,3 5,5 2,2 3,3 5,5 1,2 3,3 4,5 2,2 3,3 4,5 2,2 3,4 5,5 1,2 3,4 4,5 1,2 3,4 4,5 1,2 3,4 4,6 1,1 3,3 4,5 1,1 3,3 4,5 1,1 2,3 4,5 1,1 2,3 3,5 2,2 3,3 4,5 1,2 2,3 4,5 1,2 2,3 3,5 1,2 2,4 4,5 1,2 2,4 3,5 1,2 2,4 3,5 1,2 2,4 4,6 1,1 2,3 3,5 1,1 2,3 3,5 1,1 2,3 3,5 1,1 2,3 3,5 1,2 2,3 3,5 1,2 2,3 3,5 1,2 1,3 2,5 1,2 2,4 3,5 1,2 2,4 3,5 1,2 2,4 2,5 1,2 2,4 3,6 1,1 2,3 2,5 1,1 2,3 3,5 1,1 2,3 2,5 1,2 2,3 3,5 0,2 1,3 2,5 1,2 1,3 2,5 1,2 2,3 2,5 1,2 2,4 3,5 0,2 1,4 2,5 0,2 1,4 2,5 0,2 1,4 2,6 0,1 1,3 2,5 0,1 1,3 2,5 0,1 1,3 1,5 1,2 2,3 2,5 1,2 1,3 2,5 0,2 1,3 2,5 0,2 1,3 1,5 1,2 1,4 2,5 0,2 1,4 1,5 1,2 1,4 2,5 0,2 1,4 1,6 1,1 1,3 2,5 0,1 1,3 1,5 1,1 1,3 2,5 0,2 0,3 1,5 0,2 1,3 1,5 0,2 1,3 1,5 1,2 1,3 1,5 1,2 1,4 1,5 1,2 1,4 2,5 0,2 0,4 1,5 0,2 0,4 1,6 0,1 0,3 1,5 0,1 0,3 0,5 1,1 1,3 1,5 1,2 1,3 1,5 0,2 1,3 1,5 0,2 0,3 1,5 0,2 0,3 0,5 1,2 1,4 1,5 0,2 0,4 1,5 0,2 0,4 0,5 0,2 1,4 1,6 0,1 0,3 0,5 0,1 0,3 1,5 0,1 0,3 0,5 0,2 0,3 0,5 1,2 1,3 1,5 0,2 0,3 0,5 0,2 0,4 0,5 0,2 0,4 0,5 1,2 1,4 1,5 0,2 0,4 0,5 0,2 0,4 0,6 0,1 0,3 0,5 0,1 0,2 0,3l0 2 0 2c0,1 0,2 0,3 0,2 0,3 0,5 0,2 0,3 0,5 0,2 0,3 0,5 0,2 0,4 -1,5 0,2 0,4 0,5 0,2 0,4 0,5 0,2 0,4 0,5 0,2 0,4 -1,6 0,1 0,3 0,5 0,1 0,3 0,5 -1,1 -1,3 -1,5 0,2 0,3 0,5 0,2 -1,3 -1,5 0,2 0,3 0,5 -1,2 -1,4 -1,5 0,2 0,4 -1,5 0,2 0,4 0,5 -1,2 -1,4 -1,5 0,2 -1,4 -1,6 0,1 0,3 -1,5 0,1 0,3 -1,5 0,1 0,3 0,5 -1,2 -1,3 -1,5 -1,2 -1,3 -1,5 -1,2 -1,3 -1,5 -1,2 -1,4 -2,5 0,2 0,4 -1,5 0,2 0,4 -1,5 0,2 -1,4 -1,6 0,1 -1,3 -1,5 -1,1 -1,3 -1,5 -1,1 -1,3 -2,5 0,1 -1,3 -1,5 -1,2 -1,3 -2,5 0,2 -1,3 -1,5 -1,2 -1,3 -2,5 0,2 -1,4 -1,5 -1,2 -1,4 -2,5 0,2 -1,4 -1,5 -1,2 -2,4 -2,6 -1,1 -1,3 -2,5 0,1 -1,3 -2,5 0,1 -1,3 -1,5 -1,1 -2,3 -2,5 -1,2 -2,3 -2,5 -1,2 -2,3 -2,5 -1,2 -2,3 -2,5 -1,2 -2,4 -2,5 -1,2 -2,4 -3,5 0,2 -1,4 -2,5 -1,2 -1,4 -2,6 -1,1 -2,3 -2,5 -1,1 -2,3 -3,5 0,1 -1,3 -2,5 -1,1 -2,3 -3,5 0,2 -1,3 -2,5 -1,2 -2,3 -3,5 0,2 -1,3 -2,5 -1,2 -2,4 -3,5 -1,2 -2,4 -3,5 -1,2 -1,4 -2,5 -1,2 -2,4 -3,6 -1,1 -2,3 -3,5 -1,1 -2,3 -3,5 -1,1 -2,3 -3,5 -1,2 -2,3 -3,5 -1,2 -2,3 -3,5 -2,2 -3,3 -4,5 -1,2 -2,3 -3,5 -1,2 -2,4 -3,5 -2,2 -3,4 -4,5 -1,2 -2,4 -3,5 -2,2 -3,4 -4,6 -1,1 -2,3 -4,5 -1,1 -2,3 -3,5 -2,1 -3,3 -4,5 -1,2 -3,3 -4,5 -1,2 -3,3 -4,5 -1,2 -3,3 -4,5 -1,2 -3,3 -4,5 -1,2 -3,4 -4,5 -2,2 -3,4 -5,5 -1,2 -2,4 -4,5 -1,2 -3,4 -4,6 -2,1 -3,3 -5,5 -2,1 -3,3 -5,5 -1,1 -3,3 -4,5 -2,2 -4,3 -5,5 -2,2 -4,3 -5,5 -2,2 -4,3 -5,5 -2,2 -4,3 -6,5 -1,2 -3,4 -5,5 -2,2 -4,4 -5,5 -2,2 -4,4 -6,5 -2,2 -4,4 -6,6 -2,1 -4,3 -5,5 -2,1 -4,3 -6,5 -3,1 -5,3 -7,5 -2,2 -4,3 -6,5 -2,2 -4,3 -6,5 -3,2 -5,3 -7,5 -2,2 -4,4 -7,5 -2,2 -4,4 -7,5 -2,2 -5,4 -7,5 -2,2 -5,4 -7,5 -3,2 -5,4 -8,6 -3,1 -5,3 -8,5 -2,1 -5,3 -8,5 -3,1 -6,3 -8,5 -3,2 -6,3 -9,5 -3,2 -6,3 -9,5 -3,2 -6,3 -9,5 -4,2 -7,4 -10,5 -3,2 -7,4 -10,5 -4,2 -7,4 -11,5 -4,2 -7,4 -11,5 -4,2 -8,4 -12,6 -4,1 -8,3 -12,5 -5,1 -9,3 -13,5 -5,2 -10,3 -15,5 -5,2 -10,3 -15,5 -6,2 -11,3 -17,5 -6,2 -12,4 -18,5 -8,2 -15,4 -22,5 -8,2 -17,4 -25,5 -11,2 -23,4 -34,5 -27,4 -54,5 -82,5 -26,0 -51,-1 -76,-5 -11,-1 -22,-3 -32,-5 -9,-1 -17,-3 -25,-5 -7,-1 -14,-3 -21,-5 -7,-2 -13,-3 -19,-5 -6,-2 -11,-3 -17,-5 -5,-2 -10,-3 -16,-5 -5,-2 -9,-4 -14,-5 -5,-2 -9,-4 -14,-5 -4,-2 -9,-4 -13,-5 -4,-2 -8,-4 -12,-6 -4,-1 -8,-3 -12,-5 -4,-1 -7,-3 -11,-5 -4,-1 -7,-3 -11,-5 -3,-2 -7,-3 -10,-5 -4,-2 -7,-3 -10,-5 -4,-2 -7,-3 -10,-5 -3,-2 -6,-4 -9,-5 -3,-2 -6,-4 -9,-5 -3,-2 -6,-4 -8,-5 -4,-3 -7,-4 -9,-5 0,-1 -1,-1 -1,-1l-3 1 -15 5 -16 5 -15 5 -16 5 -16 5 -15 5 -16 5 -15 5 -16 5 -16 5 -15 6 -16 5 -15 5 -16 5 -16 5z"/>
   <path class="fil1" d="M838 1458c-199,0 -359,-107 -359,-107l-245 80 80 -238c0,0 -127,-175 -127,-386 0,-360 291,-652 651,-652 360,0 652,292 652,652 0,360 -292,651 -652,651zm0 -1427c-428,0 -776,347 -776,776 0,212 113,403 113,403l-136 413 426 -136c0,0 157,96 373,96 429,0 776,-348 776,-776 0,-429 -347,-776 -776,-776z"/>
   <path class="fil1" d="M543 469c0,0 21,-13 32,-13 11,0 61,0 61,0 0,0 16,3 24,20 7,17 59,138 63,147 4,9 14,33 -3,53 -16,21 -49,60 -49,60 0,0 -13,12 -2,31 12,19 52,81 105,129 53,47 118,82 150,93 33,11 40,-4 52,-20 12,-15 51,-64 51,-64 0,0 13,-20 39,-8 27,12 154,74 154,74 0,0 15,2 16,20 1,17 12,69 -35,118 -46,50 -144,73 -190,60 -46,-13 -200,-53 -300,-146 -100,-93 -181,-192 -214,-264 -33,-72 -31,-115 -29,-136 1,-20 12,-114 75,-154z"/>
  </g>
 </g>
</svg>
