<?xml version="1.0" encoding="UTF-8"?>
<!DOCTYPE svg PUBLIC "-//W3C//DTD SVG 1.1//EN" "http://www.w3.org/Graphics/SVG/1.1/DTD/svg11.dtd">
<!-- Creator: CorelDRAW X7 -->
<svg xmlns="http://www.w3.org/2000/svg" xml:space="preserve" width="4.894in" height="3.532in" version="1.1" style="shape-rendering:geometricPrecision; text-rendering:geometricPrecision; image-rendering:optimizeQuality; fill-rule:evenodd; clip-rule:evenodd"
viewBox="0 0 4894 3532"
 xmlns:xlink="http://www.w3.org/1999/xlink">
 <defs>
  <style type="text/css">
   <![CDATA[
    .fil0 {fill:#EE3539}
   ]]>
  </style>
 </defs>
 <g id="Layer_x0020_1">
  <metadata id="CorelCorpID_0Corel-Layer"/>
  <g id="_903246400">
   <path class="fil0" d="M129 858c-44,0 -85,0 -128,0 0,-281 0,-560 0,-841 43,0 85,0 128,0 0,281 0,560 0,841z"/>
   <path class="fil0" d="M1149 3161c0,-14 0,-23 0,-33 0,-195 -1,-391 0,-586 0,-27 -9,-32 -33,-32 -250,1 -500,0 -749,0 -210,0 -367,-156 -367,-365 0,-110 0,-221 0,-332l0 -53c0,-100 0,-200 0,-300 0,-186 121,-331 304,-363 22,-4 45,-5 68,-5 375,0 749,0 1124,0 9,0 17,0 30,0 -5,11 -7,18 -10,25 -54,108 -109,216 -163,325 -8,17 -17,22 -36,22 -303,0 -607,0 -911,0 -10,0 -21,0 -34,0 0,225 0,449 0,675 12,0 23,1 34,1 253,0 505,0 757,0 194,0 355,159 356,352 1,229 1,458 0,688 -1,192 -160,351 -352,351 -375,1 -750,0 -1124,0 -7,0 -14,0 -25,-1 5,-11 8,-19 12,-28 53,-105 106,-210 158,-315 9,-20 20,-27 42,-27 291,1 583,1 874,1 13,0 26,0 45,0z"/>
   <path class="fil0" d="M3875 3158c339,0 672,0 1010,0 -5,12 -8,21 -13,30 -53,108 -107,217 -161,325 -5,9 -18,17 -27,18 -30,2 -61,0 -91,0 -443,0 -887,0 -1331,0 -12,0 -24,0 -42,0 342,-691 680,-1377 1021,-2068 -346,0 -688,0 -1034,0 5,-11 7,-17 10,-23 54,-109 108,-217 161,-326 9,-17 19,-22 37,-22 482,0 963,0 1445,0 7,0 14,1 26,2 -337,688 -673,1374 -1011,2064z"/>
   <path class="fil0" d="M3108 1092c-5,12 -8,19 -12,26 -53,107 -107,215 -160,323 -9,17 -18,23 -38,23 -245,-1 -491,0 -736,0 -11,0 -23,0 -37,0 0,221 0,440 0,663 245,0 489,0 737,0 -5,11 -7,18 -11,25 -53,108 -108,215 -161,323 -8,18 -19,24 -38,24 -164,-1 -328,-1 -492,-1 -11,0 -22,0 -35,0 0,221 0,439 0,661 326,0 652,0 982,0 -4,12 -7,19 -10,26 -54,108 -108,216 -162,325 -8,17 -19,22 -37,22 -371,-1 -743,-1 -1115,0 -27,0 -32,-9 -32,-34 1,-491 0,-982 0,-1473 0,-299 0,-598 0,-897 0,-36 0,-36 37,-36 428,0 857,0 1285,0 11,0 21,0 35,0z"/>
   <path class="fil0" d="M1067 734c10,1 19,2 27,2 47,0 94,-1 141,1 25,1 31,-8 31,-32 -1,-182 -1,-364 -1,-547 0,-8 -1,-16 -1,-26 -67,0 -131,0 -197,0 0,201 0,401 0,602zm-130 -734c32,0 64,0 96,0 44,0 89,0 133,0l19 0c31,0 61,0 92,0 60,0 112,48 119,107 0,3 0,6 0,8 0,212 1,423 0,635 -1,65 -52,115 -118,117 -111,2 -223,0 -334,0 -2,0 -4,-1 -7,-2 0,-287 0,-573 0,-865z"/>
   <path class="fil0" d="M1709 132c-1,6 -3,10 -3,14 0,190 0,380 -1,570 0,17 9,20 23,20 49,0 98,-1 146,1 26,1 33,-7 33,-33 -1,-181 0,-362 0,-543 0,-10 -1,-19 -2,-29 -67,0 -131,0 -196,0zm329 301c0,101 0,202 0,303 0,78 -53,131 -131,132 -67,0 -133,0 -200,0 -78,-1 -133,-52 -133,-131 -1,-203 -1,-405 0,-608 0,-79 54,-129 133,-129 69,0 139,0 208,0 68,0 123,53 123,122 0,104 0,207 0,311z"/>
   <path class="fil0" d="M305 0c14,0 27,0 40,0 83,0 167,0 250,0 91,0 160,61 161,151 2,231 0,462 0,693 0,5 -1,9 -3,16 -38,0 -76,0 -114,-1 -5,0 -11,-8 -13,-14 -3,-8 -1,-16 -1,-24 0,-213 0,-427 0,-640 0,-47 -4,-50 -49,-50 -46,0 -92,0 -141,0 0,243 0,483 0,726 -44,0 -86,0 -130,0 0,-284 0,-568 0,-857z"/>
   <path class="fil0" d="M2345 131c0,14 0,25 0,35 0,221 0,441 1,661 0,28 -9,36 -35,34 -23,-2 -47,-2 -71,0 -22,1 -29,-8 -27,-28 1,-5 0,-9 0,-13 0,-261 0,-521 0,-781 0,-12 1,-24 2,-39 12,0 21,0 31,0 88,0 177,0 265,0 84,0 152,65 154,148 2,86 1,172 1,257 0,140 0,280 0,420 0,10 0,21 0,33 -45,0 -87,0 -132,0 0,-12 0,-22 0,-33 0,-215 0,-430 0,-645 0,-46 -3,-49 -50,-49 -45,0 -89,0 -139,0z"/>
   <path class="fil0" d="M3734 735c0,-79 0,-153 0,-230 -10,-1 -19,-2 -29,-2 -53,0 -108,0 -162,0 -78,0 -132,-54 -132,-131 0,-81 0,-161 0,-242 0,-77 54,-130 130,-130 107,0 214,0 327,0 -22,44 -42,84 -63,124 -3,5 -16,6 -24,6 -69,1 -138,1 -207,1 -9,0 -19,1 -30,1 0,80 0,157 0,238 9,1 19,2 28,2 55,0 110,-1 165,0 74,0 129,54 129,129 1,80 1,159 0,239 -1,69 -51,125 -120,127 -105,3 -209,1 -314,1 -3,0 -6,-2 -14,-4 21,-42 41,-82 62,-121 3,-5 18,-6 27,-7 64,0 129,0 193,0 11,0 21,-1 34,-1z"/>
   <path class="fil0" d="M4575 859c11,-41 20,-79 32,-116 3,-6 15,-13 24,-14 26,-1 52,0 85,0 -38,-121 -75,-236 -112,-352 -3,0 -5,0 -8,0 -9,34 -19,68 -28,102 -32,119 -65,239 -96,358 -5,18 -13,24 -32,24 -36,-2 -72,-1 -112,-1 16,-57 30,-111 44,-164 60,-220 120,-441 180,-662 4,-16 8,-29 29,-25 20,3 44,-10 54,24 83,267 168,532 252,798 2,9 4,17 7,28 -107,0 -211,0 -319,0z"/>
   <path class="fil0" d="M2849 863c0,-287 0,-573 0,-861 144,0 287,0 433,0 -21,41 -40,81 -61,119 -3,6 -16,9 -24,9 -62,1 -124,1 -186,1 -10,0 -19,1 -30,1 0,78 0,154 0,233 70,0 140,0 217,0 -23,45 -43,85 -64,124 -3,6 -15,8 -22,8 -36,1 -71,2 -107,0 -18,0 -27,5 -26,25 1,63 1,126 0,189 -1,20 7,26 26,25 81,0 161,0 242,0 10,0 21,0 37,0 -22,44 -42,84 -62,124 -3,4 -10,7 -16,7 -117,0 -235,0 -353,-1 -1,0 -1,-1 -4,-3z"/>
   <path class="fil0" d="M4045 17c42,0 83,0 127,0 0,279 0,558 0,840 -41,0 -83,0 -127,0 0,-279 0,-559 0,-840z"/>
  </g>
 </g>
</svg>
