<?xml version="1.0" encoding="UTF-8"?>
<!DOCTYPE svg PUBLIC "-//W3C//DTD SVG 1.1//EN" "http://www.w3.org/Graphics/SVG/1.1/DTD/svg11.dtd">
<!-- Creator: CorelDRAW X7 -->
<svg xmlns="http://www.w3.org/2000/svg" xml:space="preserve" width="1in" height="1in" version="1.1" style="shape-rendering:geometricPrecision; text-rendering:geometricPrecision; image-rendering:optimizeQuality; fill-rule:evenodd; clip-rule:evenodd"
viewBox="0 0 162 162"
 xmlns:xlink="http://www.w3.org/1999/xlink">
 <defs>
  <style type="text/css">
   <![CDATA[
    .fil0 {fill:white;fill-rule:nonzero}
   ]]>
  </style>
 </defs>
 <g id="Layer_x0020_1">
  <metadata id="CorelCorpID_0Corel-Layer"/>
  <g id="_2256065482944">
   <path class="fil0" d="M81 0c-45,0 -81,36 -81,81 0,45 36,81 81,81 45,0 81,-36 81,-81 0,-45 -36,-81 -81,-81zm-51 104l0 0 12 -18 2 18 -14 0zm18 0l0 0 -3 -31 -20 31 -14 0 30 -45 12 0 6 45 -11 0zm41 -1l0 0 -10 -18 -5 19 -12 0 12 -45 12 0 -6 19 19 -19 13 0 -22 22 13 22 -14 0zm58 1l0 0 -13 0 -10 -17 -5 17 -12 0 11 -43 24 0c0,0 10,4 9,14 -2,10 -13,14 -13,14l9 15z"/>
   <path class="fil0" d="M134 69l-6 0 -3 11c18,2 14,-11 9,-11z"/>
  </g>
 </g>
</svg>
