<?xml version="1.0" encoding="UTF-8"?>
<!DOCTYPE svg PUBLIC "-//W3C//DTD SVG 1.1//EN" "http://www.w3.org/Graphics/SVG/1.1/DTD/svg11.dtd">
<!-- Creator: CorelDRAW X7 -->
<svg xmlns="http://www.w3.org/2000/svg" xml:space="preserve" width="1in" height="1in" version="1.1" style="shape-rendering:geometricPrecision; text-rendering:geometricPrecision; image-rendering:optimizeQuality; fill-rule:evenodd; clip-rule:evenodd"
viewBox="0 0 699 699"
 xmlns:xlink="http://www.w3.org/1999/xlink">
 <defs>
  <style type="text/css">
   <![CDATA[
    .fil0 {fill:#231D5B;fill-rule:nonzero}
    .fil2 {fill:#E50013;fill-rule:nonzero}
    .fil1 {fill:white;fill-rule:nonzero}
   ]]>
  </style>
 </defs>
 <g id="Layer_x0020_1">
  <metadata id="CorelCorpID_0Corel-Layer"/>
  <g id="_2255893993184">
   <path class="fil0" d="M349 0c193,0 350,156 350,349 0,193 -157,350 -350,350 -193,0 -349,-157 -349,-350 0,-193 156,-349 349,-349z"/>
   <polygon class="fil1" points="250,449 302,254 352,254 329,337 411,255 466,255 372,349 427,445 366,445 322,367 300,449 "/>
   <polygon class="fil1" points="30,448 161,255 212,255 236,448 191,448 178,313 89,449 "/>
   <polygon class="fil2" points="113,449 162,372 171,448 "/>
   <path class="fil1" d="M633 325c6,-43 -39,-63 -39,-63l-100 0 -50 187 53 0 20 -74 44 74 55 0 -38 -65c0,0 49,-17 55,-59zm-110 21l0 0 13 -47 24 0c22,0 41,55 -37,47z"/>
  </g>
 </g>
</svg>
