<?xml version="1.0" encoding="utf-8"?>
<!-- Generator: Adobe Illustrator 16.0.0, SVG Export Plug-In . SVG Version: 6.00 Build 0)  -->
<!DOCTYPE svg PUBLIC "-//W3C//DTD SVG 1.1//EN" "http://www.w3.org/Graphics/SVG/1.1/DTD/svg11.dtd">
<svg version="1.1" id="Layer_1" xmlns="http://www.w3.org/2000/svg" xmlns:xlink="http://www.w3.org/1999/xlink" x="0px" y="0px"
	 width="297.75px" height="161.611px" viewBox="0 0 297.75 161.611" enable-background="new 0 0 297.75 161.611"
	 xml:space="preserve">
<path fill="#FFFFFF" d="M1.005,159.199l1.745-21.063c2.012,0.405,3.62,0.54,5.902,0.54c4.426,0,7.509-3.221,7.509-8.318v-73.37
	h26.828v79.677c0,15.021-10.329,24.946-25.889,24.946C11.198,161.612,5.164,160.809,1.005,159.199"/>
<rect x="55.329" y="56.988" fill="#FFFFFF" width="26.828" height="73.773"/>
<rect x="94.494" y="56.988" fill="#FFFFFF" width="26.827" height="73.773"/>
<path fill="#FFFFFF" d="M186.279,93.74c0-8.983-5.499-15.155-13.545-15.155c-8.185,0-13.685,6.036-13.685,15.291
	c0,9.123,5.5,15.291,13.685,15.291C180.78,109.166,186.279,102.998,186.279,93.74 M213.911,93.473
	c0,23.071-15.963,38.631-35.144,38.631c-8.315,0-14.89-2.95-19.718-8.183v36.352h-26.827V56.989h25.89l0.27,7.513
	c4.828-5.77,11.67-8.854,20.387-8.854C197.948,55.648,213.911,70.67,213.911,93.473z"/>
<path fill="#FFFFFF" d="M248.331,85.425h20.523c-1.344-5.902-4.563-8.854-10.463-8.854C252.756,76.572,249.67,79.658,248.331,85.425
	 M296.351,103.265h-48.021c1.209,4.963,4.158,7.914,11,7.914c4.346,0,7.953-1.295,10.74-3.584c8.846,4.271,13.69,6.625,21.19,10.25
	c-6.341,8.364-17.696,14.26-31.529,14.26c-23.874,0-39.972-14.754-39.972-37.155c0-23.475,15.426-39.303,38.631-39.303
	s38.631,14.757,38.631,37.021C297.022,96.289,296.752,100.179,296.351,103.265z"/>
<path fill="#FFFFFF" d="M106.525,0.61c-6.895,0-13.057,3.115-17.169,8.014c-0.626,0.744-1.199,1.531-1.727,2.354
	c-2.222,3.479-3.514,7.608-3.514,12.043h-0.006c0,2.546-0.627,4.945-1.728,7.063c-2.561,4.933-7.716,8.309-13.647,8.309
	c-5.923,0-11.072-3.371-13.64-8.295c-1.085-2.081-1.706-4.438-1.729-6.936c0-0.05,0.002-0.095,0.002-0.143s-0.002-0.093-0.002-0.141
	c-0.027-4.384-1.317-8.468-3.518-11.911c-0.525-0.825-1.101-1.611-1.727-2.355C44.008,3.723,37.848,0.61,30.96,0.61
	c-12.379,0-22.41,10.034-22.41,22.41s10.031,22.411,22.41,22.411c6.888,0,13.048-3.113,17.16-8.004
	c-1.548-2.21-2.748-4.676-3.521-7.326c-2.567,4.921-7.716,8.292-13.639,8.292c-8.478,0-15.375-6.894-15.375-15.372
	c0-8.477,6.897-15.375,15.375-15.375c5.923,0,11.071,3.371,13.639,8.295c1.083,2.081,1.706,4.438,1.73,6.939
	c0,0.048-0.003,0.093-0.003,0.141s0.003,0.093,0.003,0.143c0.026,4.384,1.316,8.468,3.518,11.91c0.525,0.822,1.1,1.607,1.728,2.354
	c4.108,4.891,10.271,8.004,17.16,8.004c6.894,0,13.06-3.116,17.171-8.013c0.623-0.747,1.2-1.533,1.724-2.357
	c2.222-3.478,3.515-7.607,3.515-12.041c0-0.009,0-0.018,0-0.026l0.008,0.026c0-2.545,0.624-4.948,1.725-7.062
	c2.561-4.934,7.716-8.313,13.647-8.313c8.478,0,15.372,6.898,15.372,15.375c0,8.479-6.894,15.372-15.372,15.372
	c-5.932,0-11.086-3.376-13.647-8.309c-0.774,2.653-1.973,5.122-3.521,7.335c4.112,4.896,10.274,8.013,17.169,8.013
	c12.376,0,22.41-10.034,22.41-22.411C128.935,10.644,118.901,0.61,106.525,0.61"/>
<path fill="#FFFFFF" d="M68.734,7.646c5.932,0,11.086,3.38,13.648,8.312c0.773-2.651,1.973-5.123,3.521-7.335
	c-4.112-4.897-10.275-8.011-17.169-8.011c-6.892,0-13.051,3.11-17.162,8.005c1.547,2.206,2.746,4.675,3.523,7.325
	C57.66,11.018,62.809,7.646,68.734,7.646"/>
</svg>
