<?xml version="1.0" encoding="UTF-8"?>
<!DOCTYPE svg PUBLIC "-//W3C//DTD SVG 1.1//EN" "http://www.w3.org/Graphics/SVG/1.1/DTD/svg11.dtd">
<!-- Creator: CorelDRAW X7 -->
<svg xmlns="http://www.w3.org/2000/svg" xml:space="preserve" width="7.315in" height="1.504in" version="1.1" style="shape-rendering:geometricPrecision; text-rendering:geometricPrecision; image-rendering:optimizeQuality; fill-rule:evenodd; clip-rule:evenodd"
viewBox="0 0 7315 1504"
 xmlns:xlink="http://www.w3.org/1999/xlink">
 <defs>
  <style type="text/css">
   <![CDATA[
    .fil0 {fill:#FEFEFE}
   ]]>
  </style>
 </defs>
 <g id="Layer_x0020_1">
  <metadata id="CorelCorpID_0Corel-Layer"/>
  <g id="_903005824">
   <g>
    <polygon class="fil0" points="133,1504 463,1504 463,1173 133,1173 "/>
    <path class="fil0" d="M1358 330l-329 -330 280 0c27,0 50,21 50,50l0 280 -1 0z"/>
    <path class="fil0" d="M461 843l-328 0 0 -163c0,-375 305,-680 680,-680l216 0 330 330 -546 0c-193,0 -350,156 -350,350l0 163 -2 0z"/>
    <path class="fil0" d="M678 1171l-217 0 0 -328 217 0c193,0 350,-157 350,-350l0 -493 281 0c27,0 47,21 47,46l0 445c2,377 -302,680 -678,680z"/>
    <polygon class="fil0" points="0,1173 133,1173 133,843 0,843 "/>
   </g>
   <g>
    <path class="fil0" d="M2405 418c40,52 67,125 67,203 0,117 -53,185 -131,230 -20,12 -42,20 -65,23l-7 0 0 2 -402 0 0 295 -150 0 0 -840 530 0c62,0 119,32 160,85l-2 2zm-128 293c29,-15 45,-66 45,-105 0,-35 -15,-76 -23,-86 -10,-12 -28,-29 -53,-29l-380 0 0 230 380 0c11,0 21,-3 31,-10l0 0z"/>
    <path class="fil0" d="M2719 558l0 78 539 0 0 150 -539 0 0 158c0,42 35,77 76,77l613 0 0 150 -613 0c-125,0 -225,-102 -225,-227l0 -386c0,-125 100,-227 225,-227l613 0 0 150 -613 0c-41,0 -76,34 -76,77z"/>
    <path class="fil0" d="M4196 1021l0 150 -426 0c-42,0 -82,-10 -118,-28 -54,-27 -97,-70 -122,-122 -18,-37 -28,-75 -28,-118l0 -572 150 0 0 587c6,53 50,95 101,101l443 2z"/>
    <polygon class="fil0" points="4316,1171 4466,1171 4466,331 4316,331 "/>
    <polygon class="fil0" points="5426,331 5426,1171 5276,1056 4736,640 4736,1171 4586,1171 4586,335 4736,450 5276,866 5276,331 "/>
    <path class="fil0" d="M5964 331c232,0 420,187 420,419 0,103 -37,198 -100,271 -7,8 -15,17 -23,25 -75,77 -180,123 -295,123l-420 0 0 -838 418 0zm-270 690l270 0c148,0 270,-122 270,-270 0,-148 -122,-270 -270,-270l-270 0 0 540z"/>
    <g>
     <path class="fil0" d="M7315 751c0,232 -188,420 -420,420 -231,0 -419,-188 -419,-420 0,-231 188,-420 419,-420 232,0 420,189 420,420l0 0zm-150 0c0,-148 -121,-270 -270,-270 -148,0 -269,122 -269,270 0,148 121,270 269,270 149,0 270,-122 270,-270z"/>
    </g>
   </g>
  </g>
 </g>
</svg>
